PS_ngait_og_ss9_kinetics.mot
version=1
nRows=27
nColumns=28
inDegrees=yes
endheader
time	1_ground_force_vx	1_ground_force_vy	1_ground_force_vz	1_ground_force_px	1_ground_force_py	1_ground_force_pz	2_ground_force_vx	2_ground_force_vy	2_ground_force_vz	2_ground_force_px	2_ground_force_py	2_ground_force_pz	3_ground_force_vx	3_ground_force_vy	3_ground_force_vz	3_ground_force_px	3_ground_force_py	3_ground_force_pz	1_ground_torque_x	1_ground_torque_y	1_ground_torque_z	2_ground_torque_x	2_ground_torque_y	2_ground_torque_z	3_ground_torque_x	3_ground_torque_y	3_ground_torque_z
  0.27083333	-29.51579247	706.48546463	 50.57809838	  0.27646867	 -0.00600000	  0.07558956	  0.00000000	  0.00000000	  0.00000000	 -0.30000000	 -0.00600000	  0.20000000	  0.00000000	  0.00000000	  0.00000000	  0.90000000	 -0.00600000	  0.20000000	  0.00000000	  2.32784534	  0.00000000	  0.00000000	  0.00000000	  0.00000000	  0.00000000	  0.00000000	  0.00000000
  0.27166667	-29.01785496	705.87791046	 50.45141216	  0.27644280	 -0.00600000	  0.07557786	  0.00000000	  0.00000000	  0.00000000	 -0.30000000	 -0.00600000	  0.20000000	  0.00000000	  0.00000000	  0.00000000	  0.90000000	 -0.00600000	  0.20000000	  0.00000000	  2.32032481	  0.00000000	  0.00000000	  0.00000000	  0.00000000	  0.00000000	  0.00000000	  0.00000000
  0.27250000	-28.52108593	705.28350203	 50.32796608	  0.27643517	 -0.00600000	  0.07556509	  0.00000000	  0.00000000	  0.00000000	 -0.30000000	 -0.00600000	  0.20000000	  0.00000000	  0.00000000	  0.00000000	  0.90000000	 -0.00600000	  0.20000000	  0.00000000	  2.31496440	  0.00000000	  0.00000000	  0.00000000	  0.00000000	  0.00000000	  0.00000000	  0.00000000
  0.27333333	-28.02856790	704.69701973	 50.20769480	  0.27645014	 -0.00600000	  0.07554882	  0.00000000	  0.00000000	  0.00000000	 -0.30000000	 -0.00600000	  0.20000000	  0.00000000	  0.00000000	  0.00000000	  0.90000000	 -0.00600000	  0.20000000	  0.00000000	  2.31148832	  0.00000000	  0.00000000	  0.00000000	  0.00000000	  0.00000000	  0.00000000	  0.00000000
  0.27416667	-27.54438900	704.11648451	 50.09038045	  0.27648984	 -0.00600000	  0.07552696	  0.00000000	  0.00000000	  0.00000000	 -0.30000000	 -0.00600000	  0.20000000	  0.00000000	  0.00000000	  0.00000000	  0.90000000	 -0.00600000	  0.20000000	  0.00000000	  2.30912519	  0.00000000	  0.00000000	  0.00000000	  0.00000000	  0.00000000	  0.00000000	  0.00000000
  0.27500000	-27.07299986	703.54108196	 49.97560960	  0.27655253	 -0.00600000	  0.07549761	  0.00000000	  0.00000000	  0.00000000	 -0.30000000	 -0.00600000	  0.20000000	  0.00000000	  0.00000000	  0.00000000	  0.90000000	 -0.00600000	  0.20000000	  0.00000000	  2.30716366	  0.00000000	  0.00000000	  0.00000000	  0.00000000	  0.00000000	  0.00000000	  0.00000000
  0.27583333	-26.61873015	702.97069068	 49.86365875	  0.27663211	 -0.00600000	  0.07546052	  0.00000000	  0.00000000	  0.00000000	 -0.30000000	 -0.00600000	  0.20000000	  0.00000000	  0.00000000	  0.00000000	  0.90000000	 -0.00600000	  0.20000000	  0.00000000	  2.30511485	  0.00000000	  0.00000000	  0.00000000	  0.00000000	  0.00000000	  0.00000000	  0.00000000
  0.27666667	-26.18607627	702.40589295	 49.75568253	  0.27672077	 -0.00600000	  0.07541812	  0.00000000	  0.00000000	  0.00000000	 -0.30000000	 -0.00600000	  0.20000000	  0.00000000	  0.00000000	  0.00000000	  0.90000000	 -0.00600000	  0.20000000	  0.00000000	  2.30242404	  0.00000000	  0.00000000	  0.00000000	  0.00000000	  0.00000000	  0.00000000	  0.00000000
  0.27750000	-25.77987008	701.84721754	 49.65264072	  0.27681213	 -0.00600000	  0.07537422	  0.00000000	  0.00000000	  0.00000000	 -0.30000000	 -0.00600000	  0.20000000	  0.00000000	  0.00000000	  0.00000000	  0.90000000	 -0.00600000	  0.20000000	  0.00000000	  2.29838181	  0.00000000	  0.00000000	  0.00000000	  0.00000000	  0.00000000	  0.00000000	  0.00000000
  0.27833333	-25.40356296	701.29536462	 49.55502525	  0.27690231	 -0.00600000	  0.07533266	  0.00000000	  0.00000000	  0.00000000	 -0.30000000	 -0.00600000	  0.20000000	  0.00000000	  0.00000000	  0.00000000	  0.90000000	 -0.00600000	  0.20000000	  0.00000000	  2.29225183	  0.00000000	  0.00000000	  0.00000000	  0.00000000	  0.00000000	  0.00000000	  0.00000000
  0.27916667	-25.05686252	700.75178557	 49.46394767	  0.27698973	 -0.00600000	  0.07529667	  0.00000000	  0.00000000	  0.00000000	 -0.30000000	 -0.00600000	  0.20000000	  0.00000000	  0.00000000	  0.00000000	  0.90000000	 -0.00600000	  0.20000000	  0.00000000	  2.28326624	  0.00000000	  0.00000000	  0.00000000	  0.00000000	  0.00000000	  0.00000000	  0.00000000
  0.28000000	-24.73571623	700.21823872	 49.38133221	  0.27707498	 -0.00600000	  0.07526858	  0.00000000	  0.00000000	  0.00000000	 -0.30000000	 -0.00600000	  0.20000000	  0.00000000	  0.00000000	  0.00000000	  0.90000000	 -0.00600000	  0.20000000	  0.00000000	  2.27049076	  0.00000000	  0.00000000	  0.00000000	  0.00000000	  0.00000000	  0.00000000	  0.00000000
  0.28083333	-24.43464265	699.69569212	 49.30858545	  0.27716038	 -0.00600000	  0.07524970	  0.00000000	  0.00000000	  0.00000000	 -0.30000000	 -0.00600000	  0.20000000	  0.00000000	  0.00000000	  0.00000000	  0.90000000	 -0.00600000	  0.20000000	  0.00000000	  2.25296262	  0.00000000	  0.00000000	  0.00000000	  0.00000000	  0.00000000	  0.00000000	  0.00000000
  0.28166667	-24.14823102	699.18344492	 49.24561430	  0.27724894	 -0.00600000	  0.07524058	  0.00000000	  0.00000000	  0.00000000	 -0.30000000	 -0.00600000	  0.20000000	  0.00000000	  0.00000000	  0.00000000	  0.90000000	 -0.00600000	  0.20000000	  0.00000000	  2.23029369	  0.00000000	  0.00000000	  0.00000000	  0.00000000	  0.00000000	  0.00000000	  0.00000000
  0.28250000	-23.87082398	698.68009119	 49.19112715	  0.27734338	 -0.00600000	  0.07524129	  0.00000000	  0.00000000	  0.00000000	 -0.30000000	 -0.00600000	  0.20000000	  0.00000000	  0.00000000	  0.00000000	  0.90000000	 -0.00600000	  0.20000000	  0.00000000	  2.20314149	  0.00000000	  0.00000000	  0.00000000	  0.00000000	  0.00000000	  0.00000000	  0.00000000
  0.28333333	-23.59609021	698.18545169	 49.14346773	  0.27744541	 -0.00600000	  0.07525098	  0.00000000	  0.00000000	  0.00000000	 -0.30000000	 -0.00600000	  0.20000000	  0.00000000	  0.00000000	  0.00000000	  0.90000000	 -0.00600000	  0.20000000	  0.00000000	  2.17304555	  0.00000000	  0.00000000	  0.00000000	  0.00000000	  0.00000000	  0.00000000	  0.00000000
  0.28416667	-23.31694370	697.69972318	 49.10148427	  0.27755512	 -0.00600000	  0.07526637	  0.00000000	  0.00000000	  0.00000000	 -0.30000000	 -0.00600000	  0.20000000	  0.00000000	  0.00000000	  0.00000000	  0.90000000	 -0.00600000	  0.20000000	  0.00000000	  2.14212152	  0.00000000	  0.00000000	  0.00000000	  0.00000000	  0.00000000	  0.00000000	  0.00000000
  0.28500000	-23.02620599	697.22034742	 49.06525039	  0.27767139	 -0.00600000	  0.07528091	  0.00000000	  0.00000000	  0.00000000	 -0.30000000	 -0.00600000	  0.20000000	  0.00000000	  0.00000000	  0.00000000	  0.90000000	 -0.00600000	  0.20000000	  0.00000000	  2.11285823	  0.00000000	  0.00000000	  0.00000000	  0.00000000	  0.00000000	  0.00000000	  0.00000000
  0.28583333	-22.71853349	696.74110658	 49.03582746	  0.27779329	 -0.00600000	  0.07528642	  0.00000000	  0.00000000	  0.00000000	 -0.30000000	 -0.00600000	  0.20000000	  0.00000000	  0.00000000	  0.00000000	  0.90000000	 -0.00600000	  0.20000000	  0.00000000	  2.08752859	  0.00000000	  0.00000000	  0.00000000	  0.00000000	  0.00000000	  0.00000000	  0.00000000
  0.28666667	-22.39181712	696.25520571	 49.01381841	  0.27792050	 -0.00600000	  0.07527609	  0.00000000	  0.00000000	  0.00000000	 -0.30000000	 -0.00600000	  0.20000000	  0.00000000	  0.00000000	  0.00000000	  0.90000000	 -0.00600000	  0.20000000	  0.00000000	  2.06749826	  0.00000000	  0.00000000	  0.00000000	  0.00000000	  0.00000000	  0.00000000	  0.00000000
  0.28750000	-22.04638107	695.75973132	 48.99802498	  0.27805222	 -0.00600000	  0.07524619	  0.00000000	  0.00000000	  0.00000000	 -0.30000000	 -0.00600000	  0.20000000	  0.00000000	  0.00000000	  0.00000000	  0.90000000	 -0.00600000	  0.20000000	  0.00000000	  2.05331569	  0.00000000	  0.00000000	  0.00000000	  0.00000000	  0.00000000	  0.00000000	  0.00000000
  0.28833333	-21.68273928	695.25824965	 48.98583456	  0.27818605	 -0.00600000	  0.07519633	  0.00000000	  0.00000000	  0.00000000	 -0.30000000	 -0.00600000	  0.20000000	  0.00000000	  0.00000000	  0.00000000	  0.90000000	 -0.00600000	  0.20000000	  0.00000000	  2.04539949	  0.00000000	  0.00000000	  0.00000000	  0.00000000	  0.00000000	  0.00000000	  0.00000000
  0.28916667	-21.30016334	694.75942366	 48.97508952	  0.27831759	 -0.00600000	  0.07512931	  0.00000000	  0.00000000	  0.00000000	 -0.30000000	 -0.00600000	  0.20000000	  0.00000000	  0.00000000	  0.00000000	  0.90000000	 -0.00600000	  0.20000000	  0.00000000	  2.04413138	  0.00000000	  0.00000000	  0.00000000	  0.00000000	  0.00000000	  0.00000000	  0.00000000
  0.29000000	-20.89750067	694.27113939	 48.96550643	  0.27844156	 -0.00600000	  0.07505070	  0.00000000	  0.00000000	  0.00000000	 -0.30000000	 -0.00600000	  0.20000000	  0.00000000	  0.00000000	  0.00000000	  0.90000000	 -0.00600000	  0.20000000	  0.00000000	  2.04919576	  0.00000000	  0.00000000	  0.00000000	  0.00000000	  0.00000000	  0.00000000	  0.00000000
  0.29083333	-20.47430557	693.79487490	 48.95889929	  0.27855401	 -0.00600000	  0.07496713	  0.00000000	  0.00000000	  0.00000000	 -0.30000000	 -0.00600000	  0.20000000	  0.00000000	  0.00000000	  0.00000000	  0.90000000	 -0.00600000	  0.20000000	  0.00000000	  2.05948300	  0.00000000	  0.00000000	  0.00000000	  0.00000000	  0.00000000	  0.00000000	  0.00000000
  0.29166667	-20.03053421	693.32579789	 48.95870777	  0.27865368	 -0.00600000	  0.07488355	  0.00000000	  0.00000000	  0.00000000	 -0.30000000	 -0.00600000	  0.20000000	  0.00000000	  0.00000000	  0.00000000	  0.90000000	 -0.00600000	  0.20000000	  0.00000000	  2.07387496	  0.00000000	  0.00000000	  0.00000000	  0.00000000	  0.00000000	  0.00000000	  0.00000000
  0.29250000	-19.56655649	692.85721136	 48.96895021	  0.27874145	 -0.00600000	  0.07480215	  0.00000000	  0.00000000	  0.00000000	 -0.30000000	 -0.00600000	  0.20000000	  0.00000000	  0.00000000	  0.00000000	  0.90000000	 -0.00600000	  0.20000000	  0.00000000	  2.09179723	  0.00000000	  0.00000000	  0.00000000	  0.00000000	  0.00000000	  0.00000000	  0.00000000
